<svg xmlns="http://www.w3.org/2000/svg" width="35" height="35" viewBox="0 0 35 35"><g transform="translate(-682.132 -162)"><g transform="translate(682 162)"><circle cx="17.5" cy="17.5" r="17.5" transform="translate(0.132)" fill="#420083"/><g transform="translate(2.47 2.428)"><circle cx="2.561" cy="2.561" r="2.561" transform="translate(11.47 7.915) rotate(-45)" fill="#fff"/><path d="M2.987,0A2.987,2.987,0,1,1,0,2.987,2.987,2.987,0,0,1,2.987,0Zm0,5.122A2.136,2.136,0,1,0,.851,2.987,2.136,2.136,0,0,0,2.987,5.122Z" transform="translate(10.869 7.915) rotate(-45)" fill="#fff"/><path d="M29.346,22.263a41.317,41.317,0,0,1-15.017,0,.767.767,0,1,0-.279,1.509,42.841,42.841,0,0,0,5.085.624,1.22,1.22,0,0,1,1.127,1.364l-.149,1.281a25.21,25.21,0,0,1-1.4,5.9l-.931,2.491a.768.768,0,0,0,1.439.54h0l.228-.466c.745-1.588,1.439-3.213,2.072-4.857a.345.345,0,0,1,.643,0c.633,1.644,1.327,3.26,2.072,4.861l.237.508h0a.764.764,0,0,0,.689.466.745.745,0,0,0,.265-.051.764.764,0,0,0,.466-.987l-.931-2.491a25.457,25.457,0,0,1-1.4-5.9l-.144-1.29A1.215,1.215,0,0,1,24.55,24.41a43.078,43.078,0,0,0,5.043-.615.806.806,0,0,0,.671-.778.768.768,0,0,0-.917-.754Z" transform="translate(-6.746 -11.463)" fill="#fff"/><path d="M28.921,21.249a1.194,1.194,0,0,1,1.194,1.195v.008a1.232,1.232,0,0,1-1.022,1.188A43.667,43.667,0,0,1,24,24.26a.79.79,0,0,0-.731.881h0l.144,1.29a25.059,25.059,0,0,0,1.373,5.8l.931,2.49A1.189,1.189,0,0,1,25,36.258a1.166,1.166,0,0,1-.409.077H24.58a1.19,1.19,0,0,1-1.07-.717l-.235-.5c-.753-1.62-1.411-3.157-2.008-4.693-.613,1.577-1.288,3.154-2.008,4.689v.006l-.22.449a1.195,1.195,0,0,1-2.229-.86l.931-2.491a24.806,24.806,0,0,0,1.373-5.8l.149-1.284a.795.795,0,0,0-.733-.888,43.432,43.432,0,0,1-5.134-.63,1.2,1.2,0,0,1-.461-2.158,1.184,1.184,0,0,1,.9-.187,41,41,0,0,0,7.429.681,41,41,0,0,0,7.429-.681A1.2,1.2,0,0,1,28.921,21.249Zm.343,1.19a.342.342,0,0,0-.125-.261.346.346,0,0,0-.284-.072h0a41.85,41.85,0,0,1-7.586.7,41.85,41.85,0,0,1-7.586-.7h0a.334.334,0,0,0-.393.27v.006a.338.338,0,0,0,.272.4,42.584,42.584,0,0,0,5.036.618h0a1.645,1.645,0,0,1,1.52,1.839l-.149,1.28a25.659,25.659,0,0,1-1.42,6l-.932,2.493a.343.343,0,1,0,.642.241l.007-.019.236-.481c.741-1.579,1.433-3.2,2.059-4.826a.77.77,0,0,1,1.436,0c.61,1.584,1.285,3.166,2.061,4.836l.243.521a.339.339,0,0,0,.3.206.318.318,0,0,0,.108-.022l.016-.006a.338.338,0,0,0,.206-.437l-.932-2.493a25.911,25.911,0,0,1-1.42-6l-.144-1.29a1.641,1.641,0,0,1,1.522-1.828,42.82,42.82,0,0,0,5-.609h0a.381.381,0,0,0,.312-.366Z" transform="translate(-6.172 -10.889)" fill="#fff"/><path d="M14.668,0A14.668,14.668,0,1,0,29.336,14.668,14.668,14.668,0,0,0,14.668,0Zm0,27.939A13.271,13.271,0,1,1,27.939,14.668,13.271,13.271,0,0,1,14.668,27.939Z" transform="translate(0.425 0.425)" fill="#fff"/><path d="M14.093-1h0A15.1,15.1,0,1,1,3.421,3.421,15.1,15.1,0,0,1,14.093-1Zm0,29.336A14.243,14.243,0,1,0-.149,14.093,14.243,14.243,0,0,0,14.093,28.336ZM14.093.4a13.7,13.7,0,0,1,0,27.393h0A13.7,13.7,0,1,1,14.093.4Zm0,26.542A12.846,12.846,0,1,0,1.248,14.1,12.846,12.846,0,0,0,14.093,26.942Z" transform="translate(1 1)" fill="#fff"/></g></g></g></svg>